{"title":"I,Frankenstein 2014 DVDRip R5 XViD - BiTo","uid":9678328,"size":1240739660,"categoryP":"video","categoryS":"movies","magnet":"?xt=urn:btih:3e7f80279f341ad94c0d7fa8bf0d8cfd1e56f6fe&amp;dn=I%2CFrankenstein+2014+DVDRip+R5+XViD+-+BiTo&amp;tr=udp%3A%2F%2Ftracker.openbittorrent.com%3A80&amp;tr=udp%3A%2F%2Fopen.demonii.com%3A1337&amp;tr=udp%3A%2F%2Ftracker.coppersurfer.tk%3A6969&amp;tr=udp%3A%2F%2Fexodus.desync.com%3A6969","seeders":11,"leechers":1,"uploader":"xxxlavalxxx","files":2,"time":1393609531,"description":" &lt;a href=&quot;http://i.imgur.com/zJnpnZV.jpg&quot; rel=&quot;nofollow&quot; target=&quot;_NEW&quot;&gt;http://i.imgur.com/zJnpnZV.jpg&lt;/a&gt;\n\n &lt;a href=&quot;\nhttp://www.imdb.com/title/tt1418377/&quot; rel=&quot;nofollow&quot; target=&quot;_NEW&quot;&gt;\nhttp://www.imdb.com/title/tt1418377/&lt;/a&gt;\n\n\nFrankenstein's creature finds himself caught in an all-out, centuries old war between two immortal clans.\n\nDirector: Stuart Beattie\nWriters: Stuart Beattie (screenplay), Kevin Grevioux (screen story)\nStars: Aaron Eckhart, Bill Nighy, Miranda Otto\nGenres: Action | Fantasy | Sci-Fi\nCountry: USA | Australia\nLanguage: English\n\n\n\nSource: R5 Russian thx\nAudio: MP3 CAM @ 128kb\nContainer: AVi\nCodec: Xvid\n\nVideo\nID                                       : 0\nFormat                                   : MPEG-4 Visual\nFormat profile                           : Advanced Simple@L5\nFormat settings, BVOP                    : 2\nFormat settings, QPel                    : No\nFormat settings, GMC                     : No warppoints\nFormat settings, Matrix                  : Default (MPEG)\nCodec ID                                 : XVID\nCodec ID/Hint                            : XviD\nDuration                                 : 1h 29mn\nBit rate                                 : 1 738 Kbps\nWidth                                    : 720 pixels\nHeight                                   : 304 pixels\nDisplay aspect ratio                     : 2.35:1\nFrame rate                               : 25.000 fps\nColor space                              : YUV\nChroma subsampling                       : 4:2:0\nBit depth                                : 8 bits\nScan type                                : Progressive\nCompression mode                         : Lossy\nBits/(Pixel*Frame)                       : 0.318\nStream size                              : 1.08 GiB (94%)\nWriting library                          : XviD 73\n\nAudio\nID                                       : 1\nFormat                                   : MPEG Audio\nFormat version                           : Version 1\nFormat profile                           : Layer 3\nMode                                     : Joint stereo\nMode extension                           : MS Stereo\nCodec ID                                 : 55\nCodec ID/Hint                            : MP3\nDuration                                 : 1h 29mn\nBit rate mode                            : Constant\nBit rate                                 : 112 Kbps\nChannel(s)                               : 2 channels\nSampling rate                            : 48.0 KHz\nCompression mode                         : Lossy\nStream size                              : 71.5 MiB (6%)\nAlignment                                : Aligned on interleaves\nInterleave, duration                     : 479 ms (11.97 video frames)\nInterleave, preload duration             : 216 ms\n\n\nscreens\n &lt;a href=&quot;\nhttp://i.imgur.com/hkJTlVU.png&quot; rel=&quot;nofollow&quot; target=&quot;_NEW&quot;&gt;\nhttp://i.imgur.com/hkJTlVU.png&lt;/a&gt; &lt;a href=&quot;\nhttp://i.imgur.com/gG89KiB.png&quot; rel=&quot;nofollow&quot; target=&quot;_NEW&quot;&gt;\nhttp://i.imgur.com/gG89KiB.png&lt;/a&gt; &lt;a href=&quot;\nhttp://i.imgur.com/7LUKv2O.png&quot; rel=&quot;nofollow&quot; target=&quot;_NEW&quot;&gt;\nhttp://i.imgur.com/7LUKv2O.png&lt;/a&gt; &lt;a href=&quot;\nhttp://i.imgur.com/OSFpxHp.png&quot; rel=&quot;nofollow&quot; target=&quot;_NEW&quot;&gt;\nhttp://i.imgur.com/OSFpxHp.png&lt;/a&gt; &lt;a href=&quot;\nhttp://i.imgur.com/iJYuQLC.png&quot; rel=&quot;nofollow&quot; target=&quot;_NEW&quot;&gt;\nhttp://i.imgur.com/iJYuQLC.png&lt;/a&gt;","torrent":{"xt":"urn:btih:3e7f80279f341ad94c0d7fa8bf0d8cfd1e56f6fe","amp;dn":"I%2CFrankenstein+2014+DVDRip+R5+XViD+-+BiTo","amp;tr":["udp%3A%2F%2Ftracker.openbittorrent.com%3A80","udp%3A%2F%2Fopen.demonii.com%3A1337","udp%3A%2F%2Ftracker.coppersurfer.tk%3A6969","udp%3A%2F%2Fexodus.desync.com%3A6969"],"infoHash":"3e7f80279f341ad94c0d7fa8bf0d8cfd1e56f6fe","infoHashBuffer":{"type":"Buffer","data":[62,127,128,39,159,52,26,217,76,13,127,168,191,13,140,253,30,86,246,254]},"announce":[],"urlList":[]}}